# xmcd CD database file
#
# Track frame offsets:
#	150
#	27832
#	39843
#	56426
#	81851
#	106451
#	133697
#	159151
#	174230
#	192493
#	210270
#	217628
#	227616
#	241143
#
# Disc length: 3613 seconds
#
# Revision: 0
# Processed by: cddbd v1.5.2PL0 Copyright (c) Steve Scherf et al.
# Submitted via: CDex 1.70beta2
#
DISCID=a20e1b0e
DTITLE=Enrico Pieranunzi - Enrico Pieranunzi plays Domenico Scarlatti
DYEAR=2008
DGENRE=Jazz
TTITLE0=K531 et Impro K531
TTITLE1=Impro K159 et K159
TTITLE2=K18
TTITLE3=Impro K208 et K208
TTITLE4=K377 et Impro K377
TTITLE5=K492 and Impro K492
TTITLE6=K9 and Impro K9
TTITLE7=K51
TTITLE8=K260
TTITLE9=Impro K545 and K545
TTITLE10=Impro K3
TTITLE11=K3
TTITLE12=K239
TTITLE13=K60 and Impro K69
EXTD=YEAR: 2008
EXTT0=
EXTT1=
EXTT2=
EXTT3=
EXTT4=
EXTT5=
EXTT6=
EXTT7=
EXTT8=
EXTT9=
EXTT10=
EXTT11=
EXTT12=
EXTT13=
PLAYORDER=
